ffmpeg started on 2025-06-06 at 18:08:43
Report written to "D:\Convert\FFMetrics\reports\ssim_report-6.txt"
Log level: 32
Command line:
ffmpeg -hide_banner -nostdin -i "G:\\\xc0\xed\xe8\xec\xe5\\\xce\xed\xe3\xee\xe8\xed\xe3\xe8\\!_36_\xce\xf1\xe5\xed\xfc_2024\\DreamCast\\\xcf\xf0\xee\xf9\xe0\xe9, \xe6\xe8\xe7\xed\xfc \xe4\xf0\xe0\xea\xee\xed\xe0. \xc7\xe4\xf0\xe0\xe2\xf1\xf2\xe2\xf3\xe9, \xe6\xe8\xe7\xed\xfc \xf7\xe5\xeb\xee\xe2\xe5\xea\xe0\\[DC] Sayonara Ryuusei Konnichiwa Jinsei - 01_Telegram_HEVC.mkv" -i "G:\\\xc0\xed\xe8\xec\xe5\\\xce\xed\xe3\xee\xe8\xed\xe3\xe8\\!_36_\xce\xf1\xe5\xed\xfc_2024\\DreamCast\\\xcf\xf0\xee\xf9\xe0\xe9, \xe6\xe8\xe7\xed\xfc \xe4\xf0\xe0\xea\xee\xed\xe0. \xc7\xe4\xf0\xe0\xe2\xf1\xf2\xe2\xf3\xe9, \xe6\xe8\xe7\xed\xfc \xf7\xe5\xeb\xee\xe2\xe5\xea\xe0\\[DC] Sayonara Ryuusei Konnichiwa Jinsei - 01_Telegram.mp4" -lavfi "[0:v]settb=AVTB,setpts=PTS-STARTPTS,format=pix_fmts=yuv420p10,fps=24000/1001,scale=1920:1080:flags=bicubic[main];[1:v]settb=AVTB,setpts=PTS-STARTPTS,format=pix_fmts=yuv420p,fps=24000/1001,scale=1920:1080:flags=bicubic[ref];[main][ref]ssim=eof_action=endall:stats_file='D\\:/Convert/FFMetrics/logs/ssim_logfile-6.txt'" -f null -
Input #0, matroska,webm, from 'G:\Аниме\Онгоинги\!_36_Осень_2024\DreamCast\Прощай, жизнь дракона. Здравствуй, жизнь человека\[DC] Sayonara Ryuusei Konnichiwa Jinsei - 01_Telegram_HEVC.mkv':
  Metadata:
    COMPATIBLE_BRANDS: isomiso2avc1mp41
    MAJOR_BRAND     : isom
    MINOR_VERSION   : 512
    ENCODER         : Lavf61.7.100
  Duration: 00:24:18.22, start: -0.021000, bitrate: 1102 kb/s
  Stream #0:0: Video: hevc (Main 10), yuv420p10le(tv, bt709, progressive), 1920x1080 [SAR 1:1 DAR 16:9], 23.98 fps, 23.98 tbr, 1k tbn (default)
      Metadata:
        HANDLER_NAME    : VideoHandler
        VENDOR_ID       : [0][0][0][0]
        ENCODER         : Lavc61.19.100 libx265
        BPS             : 905932
        DURATION        : 00:24:16.579708333
        NUMBER_OF_FRAMES: 34923
        NUMBER_OF_BYTES : 164945230
        _STATISTICS_WRITING_APP: mkvpropedit v66.0.0 ('Josie') 64-bit
        _STATISTICS_WRITING_DATE_UTC: 2025-06-03 08:58:38
        _STATISTICS_TAGS: BPS DURATION NUMBER_OF_FRAMES NUMBER_OF_BYTES
  Stream #0:1: Audio: aac (LC), 48000 Hz, stereo, fltp (default)
      Metadata:
        HANDLER_NAME    : SoundHandler
        VENDOR_ID       : [0][0][0][0]
        ENCODER         : Lavc61.19.100 aac
        BPS             : 193532
        DURATION        : 00:24:18.218000000
        NUMBER_OF_FRAMES: 68355
        NUMBER_OF_BYTES : 35276526
        _STATISTICS_WRITING_APP: mkvpropedit v66.0.0 ('Josie') 64-bit
        _STATISTICS_WRITING_DATE_UTC: 2025-06-03 08:58:38
        _STATISTICS_TAGS: BPS DURATION NUMBER_OF_FRAMES NUMBER_OF_BYTES
Input #1, mov,mp4,m4a,3gp,3g2,mj2, from 'G:\Аниме\Онгоинги\!_36_Осень_2024\DreamCast\Прощай, жизнь дракона. Здравствуй, жизнь человека\[DC] Sayonara Ryuusei Konnichiwa Jinsei - 01_Telegram.mp4':
  Metadata:
    major_brand     : isom
    minor_version   : 512
    compatible_brands: isomiso2avc1mp41
    encoder         : Lavf61.1.100
  Duration: 00:24:18.18, start: 0.000000, bitrate: 3773 kb/s
  Stream #1:0[0x1](und): Video: h264 (High) (avc1 / 0x31637661), yuv420p(tv, bt709, progressive), 1920x1080 [SAR 1:1 DAR 16:9], 3629 kb/s, 23.98 fps, 23.98 tbr, 24k tbn (default)
      Metadata:
        handler_name    : VideoHandler
        vendor_id       : [0][0][0][0]
        encoder         : Lavc61.3.100 h264_qsv
  Stream #1:1[0x2](und): Audio: aac (HE-AACv2) (mp4a / 0x6134706D), 48000 Hz, stereo, fltp, 144 kb/s (default)
      Metadata:
        handler_name    : SoundHandler
        vendor_id       : [0][0][0][0]
Stream mapping:
  Stream #0:0 (hevc) -> settb:default
  Stream #1:0 (h264) -> settb:default
  ssim:default -> Stream #0:0 (wrapped_avframe)
  Stream #0:1 -> #0:1 (aac (native) -> pcm_s16le (native))
Output #0, null, to 'pipe:':
  Metadata:
    COMPATIBLE_BRANDS: isomiso2avc1mp41
    MAJOR_BRAND     : isom
    MINOR_VERSION   : 512
    encoder         : Lavf61.7.100
  Stream #0:0: Video: wrapped_avframe, yuv420p10le(tv, bt709, progressive), 1920x1080 [SAR 1:1 DAR 16:9], q=2-31, 200 kb/s, 23.98 fps, 23.98 tbn
      Metadata:
        encoder         : Lavc61.19.100 wrapped_avframe
  Stream #0:1: Audio: pcm_s16le, 48000 Hz, stereo, s16, 1536 kb/s (default)
      Metadata:
        HANDLER_NAME    : SoundHandler
        VENDOR_ID       : [0][0][0][0]
        _STATISTICS_TAGS: BPS DURATION NUMBER_OF_FRAMES NUMBER_OF_BYTES
        BPS             : 193532
        DURATION        : 00:24:18.218000000
        NUMBER_OF_FRAMES: 68355
        NUMBER_OF_BYTES : 35276526
        _STATISTICS_WRITING_APP: mkvpropedit v66.0.0 ('Josie') 64-bit
        _STATISTICS_WRITING_DATE_UTC: 2025-06-03 08:58:38
        encoder         : Lavc61.19.100 pcm_s16le
frame=  172 fps=0.0 q=-0.0 size=N/A time=00:00:07.17 bitrate=N/A speed=13.9x    frame=  420 fps=406 q=-0.0 size=N/A time=00:00:17.51 bitrate=N/A speed=16.9x    frame=  675 fps=434 q=-0.0 size=N/A time=00:00:28.15 bitrate=N/A speed=18.1x    frame=  906 fps=439 q=-0.0 size=N/A time=00:00:37.78 bitrate=N/A speed=18.3x    frame= 1149 fps=445 q=-0.0 size=N/A time=00:00:47.92 bitrate=N/A speed=18.6x    frame= 1373 fps=443 q=-0.0 size=N/A time=00:00:57.26 bitrate=N/A speed=18.5x    frame= 1594 fps=441 q=-0.0 size=N/A time=00:01:06.48 bitrate=N/A speed=18.4x    frame= 1816 fps=440 q=-0.0 size=N/A time=00:01:15.78 bitrate=N/A speed=18.4x    frame= 2054 fps=442 q=-0.0 size=N/A time=00:01:25.66 bitrate=N/A speed=18.4x    frame= 2304 fps=446 q=-0.0 size=N/A time=00:01:36.09 bitrate=N/A speed=18.6x    frame= 2544 fps=448 q=-0.0 size=N/A time=00:01:46.10 bitrate=N/A speed=18.7x    frame= 2817 fps=456 q=-0.0 size=N/A time=00:01:57.49 bitrate=N/A speed=  19x    frame= 3070 fps=458 q=-0.0 size=N/A time=00:02:08.04 bitrate=N/A speed=19.1x    frame= 3308 fps=458 q=-0.0 size=N/A time=00:02:17.97 bitrate=N/A speed=19.1x    frame= 3568 fps=461 q=-0.0 size=N/A time=00:02:28.81 bitrate=N/A speed=19.2x    frame= 3814 fps=462 q=-0.0 size=N/A time=00:02:39.07 bitrate=N/A speed=19.3x    frame= 4075 fps=465 q=-0.0 size=N/A time=00:02:49.96 bitrate=N/A speed=19.4x    frame= 4319 fps=465 q=-0.0 size=N/A time=00:03:00.13 bitrate=N/A speed=19.4x    frame= 4575 fps=467 q=-0.0 size=N/A time=00:03:10.81 bitrate=N/A speed=19.5x    frame= 4840 fps=469 q=-0.0 size=N/A time=00:03:21.86 bitrate=N/A speed=19.6x    frame= 5103 fps=471 q=-0.0 size=N/A time=00:03:32.87 bitrate=N/A speed=19.6x    frame= 5339 fps=471 q=-0.0 size=N/A time=00:03:42.68 bitrate=N/A speed=19.6x    frame= 5552 fps=468 q=-0.0 size=N/A time=00:03:51.56 bitrate=N/A speed=19.5x    frame= 5767 fps=466 q=-0.0 size=N/A time=00:04:00.53 bitrate=N/A speed=19.4x    frame= 5957 fps=462 q=-0.0 size=N/A time=00:04:08.45 bitrate=N/A speed=19.3x    frame= 6163 fps=459 q=-0.0 size=N/A time=00:04:17.04 bitrate=N/A speed=19.1x    frame= 6354 fps=456 q=-0.0 size=N/A time=00:04:25.01 bitrate=N/A speed=  19x    frame= 6552 fps=453 q=-0.0 size=N/A time=00:04:33.27 bitrate=N/A speed=18.9x    frame= 6747 fps=451 q=-0.0 size=N/A time=00:04:41.40 bitrate=N/A speed=18.8x    frame= 6987 fps=451 q=-0.0 size=N/A time=00:04:51.41 bitrate=N/A speed=18.8x    frame= 7181 fps=449 q=-0.0 size=N/A time=00:04:59.50 bitrate=N/A speed=18.7x    frame= 7412 fps=449 q=-0.0 size=N/A time=00:05:09.14 bitrate=N/A speed=18.7x    frame= 7693 fps=452 q=-0.0 size=N/A time=00:05:20.86 bitrate=N/A speed=18.8x    frame= 7939 fps=452 q=-0.0 size=N/A time=00:05:31.12 bitrate=N/A speed=18.9x    frame= 8158 fps=452 q=-0.0 size=N/A time=00:05:40.25 bitrate=N/A speed=18.8x    frame= 8373 fps=451 q=-0.0 size=N/A time=00:05:49.22 bitrate=N/A speed=18.8x    frame= 8629 fps=452 q=-0.0 size=N/A time=00:05:59.90 bitrate=N/A speed=18.8x    frame= 8902 fps=454 q=-0.0 size=N/A time=00:06:11.28 bitrate=N/A speed=18.9x    frame= 9183 fps=456 q=-0.0 size=N/A time=00:06:23.00 bitrate=N/A speed=  19x    frame= 9443 fps=458 q=-0.0 size=N/A time=00:06:33.85 bitrate=N/A speed=19.1x    frame= 9676 fps=457 q=-0.0 size=N/A time=00:06:43.56 bitrate=N/A speed=19.1x    frame= 9908 fps=457 q=-0.0 size=N/A time=00:06:53.24 bitrate=N/A speed=19.1x    frame=10194 fps=459 q=-0.0 size=N/A time=00:07:05.17 bitrate=N/A speed=19.2x    frame=10437 fps=460 q=-0.0 size=N/A time=00:07:15.30 bitrate=N/A speed=19.2x    frame=10678 fps=460 q=-0.0 size=N/A time=00:07:25.36 bitrate=N/A speed=19.2x    frame=10954 fps=462 q=-0.0 size=N/A time=00:07:36.87 bitrate=N/A speed=19.2x    frame=11191 fps=461 q=-0.0 size=N/A time=00:07:46.75 bitrate=N/A speed=19.2x    frame=11408 fps=461 q=-0.0 size=N/A time=00:07:55.80 bitrate=N/A speed=19.2x    frame=11675 fps=462 q=-0.0 size=N/A time=00:08:06.94 bitrate=N/A speed=19.3x    frame=11934 fps=463 q=-0.0 size=N/A time=00:08:17.74 bitrate=N/A speed=19.3x    frame=12170 fps=462 q=-0.0 size=N/A time=00:08:27.59 bitrate=N/A speed=19.3x    frame=12435 fps=463 q=-0.0 size=N/A time=00:08:38.64 bitrate=N/A speed=19.3x    frame=12706 fps=465 q=-0.0 size=N/A time=00:08:49.94 bitrate=N/A speed=19.4x    frame=12959 fps=465 q=-0.0 size=N/A time=00:09:00.49 bitrate=N/A speed=19.4x    frame=13201 fps=465 q=-0.0 size=N/A time=00:09:10.59 bitrate=N/A speed=19.4x    frame=13479 fps=466 q=-0.0 size=N/A time=00:09:22.18 bitrate=N/A speed=19.5x    frame=13737 fps=467 q=-0.0 size=N/A time=00:09:32.94 bitrate=N/A speed=19.5x    frame=13969 fps=467 q=-0.0 size=N/A time=00:09:42.62 bitrate=N/A speed=19.5x    frame=14225 fps=467 q=-0.0 size=N/A time=00:09:53.30 bitrate=N/A speed=19.5x    frame=14492 fps=468 q=-0.0 size=N/A time=00:10:04.43 bitrate=N/A speed=19.5x    frame=14743 fps=468 q=-0.0 size=N/A time=00:10:14.90 bitrate=N/A speed=19.5x    frame=15025 fps=469 q=-0.0 size=N/A time=00:10:26.66 bitrate=N/A speed=19.6x    frame=15287 fps=470 q=-0.0 size=N/A time=00:10:37.59 bitrate=N/A speed=19.6x    frame=15525 fps=470 q=-0.0 size=N/A time=00:10:47.52 bitrate=N/A speed=19.6x    frame=15780 fps=470 q=-0.0 size=N/A time=00:10:58.15 bitrate=N/A speed=19.6x    frame=16074 fps=472 q=-0.0 size=N/A time=00:11:10.41 bitrate=N/A speed=19.7x    frame=16333 fps=472 q=-0.0 size=N/A time=00:11:21.22 bitrate=N/A speed=19.7x    frame=16618 fps=473 q=-0.0 size=N/A time=00:11:33.10 bitrate=N/A speed=19.7x    frame=16874 fps=474 q=-0.0 size=N/A time=00:11:43.78 bitrate=N/A speed=19.8x    frame=17097 fps=473 q=-0.0 size=N/A time=00:11:53.08 bitrate=N/A speed=19.7x    frame=17327 fps=473 q=-0.0 size=N/A time=00:12:02.68 bitrate=N/A speed=19.7x    frame=17574 fps=473 q=-0.0 size=N/A time=00:12:12.98 bitrate=N/A speed=19.7x    frame=17833 fps=473 q=-0.0 size=N/A time=00:12:23.78 bitrate=N/A speed=19.7x    frame=18101 fps=474 q=-0.0 size=N/A time=00:12:34.96 bitrate=N/A speed=19.8x    frame=18364 fps=474 q=-0.0 size=N/A time=00:12:45.93 bitrate=N/A speed=19.8x    frame=18611 fps=474 q=-0.0 size=N/A time=00:12:56.23 bitrate=N/A speed=19.8x    frame=18865 fps=475 q=-0.0 size=N/A time=00:13:06.82 bitrate=N/A speed=19.8x    frame=19102 fps=475 q=-0.0 size=N/A time=00:13:16.71 bitrate=N/A speed=19.8x    frame=19363 fps=475 q=-0.0 size=N/A time=00:13:27.59 bitrate=N/A speed=19.8x    frame=19611 fps=475 q=-0.0 size=N/A time=00:13:37.94 bitrate=N/A speed=19.8x    frame=19832 fps=475 q=-0.0 size=N/A time=00:13:47.15 bitrate=N/A speed=19.8x    frame=20078 fps=474 q=-0.0 size=N/A time=00:13:57.41 bitrate=N/A speed=19.8x    frame=20301 fps=474 q=-0.0 size=N/A time=00:14:06.72 bitrate=N/A speed=19.8x    frame=20531 fps=474 q=-0.0 size=N/A time=00:14:16.31 bitrate=N/A speed=19.8x    frame=20760 fps=473 q=-0.0 size=N/A time=00:14:25.86 bitrate=N/A speed=19.7x    frame=21033 fps=474 q=-0.0 size=N/A time=00:14:37.25 bitrate=N/A speed=19.8x    frame=21271 fps=474 q=-0.0 size=N/A time=00:14:47.17 bitrate=N/A speed=19.8x    frame=21505 fps=474 q=-0.0 size=N/A time=00:14:56.93 bitrate=N/A speed=19.8x    frame=21756 fps=474 q=-0.0 size=N/A time=00:15:07.40 bitrate=N/A speed=19.8x    frame=22040 fps=475 q=-0.0 size=N/A time=00:15:19.25 bitrate=N/A speed=19.8x    frame=22300 fps=475 q=-0.0 size=N/A time=00:15:30.09 bitrate=N/A speed=19.8x    frame=22552 fps=475 q=-0.0 size=N/A time=00:15:40.60 bitrate=N/A speed=19.8x    frame=22817 fps=476 q=-0.0 size=N/A time=00:15:51.65 bitrate=N/A speed=19.8x    frame=23089 fps=476 q=-0.0 size=N/A time=00:16:03.00 bitrate=N/A speed=19.9x    frame=23308 fps=475 q=-0.0 size=N/A time=00:16:12.13 bitrate=N/A speed=19.8x    frame=23543 fps=475 q=-0.0 size=N/A time=00:16:21.93 bitrate=N/A speed=19.8x    frame=23759 fps=475 q=-0.0 size=N/A time=00:16:30.94 bitrate=N/A speed=19.8x    frame=23987 fps=474 q=-0.0 size=N/A time=00:16:40.45 bitrate=N/A speed=19.8x    frame=24191 fps=474 q=-0.0 size=N/A time=00:16:48.96 bitrate=N/A speed=19.8x    frame=24398 fps=473 q=-0.0 size=N/A time=00:16:57.59 bitrate=N/A speed=19.7x    frame=24620 fps=472 q=-0.0 size=N/A time=00:17:06.85 bitrate=N/A speed=19.7x    frame=24866 fps=473 q=-0.0 size=N/A time=00:17:17.11 bitrate=N/A speed=19.7x    frame=25087 fps=472 q=-0.0 size=N/A time=00:17:26.33 bitrate=N/A speed=19.7x    frame=25275 fps=471 q=-0.0 size=N/A time=00:17:34.17 bitrate=N/A speed=19.6x    frame=25521 fps=471 q=-0.0 size=N/A time=00:17:44.43 bitrate=N/A speed=19.6x    frame=25792 fps=472 q=-0.0 size=N/A time=00:17:55.74 bitrate=N/A speed=19.7x    frame=26055 fps=472 q=-0.0 size=N/A time=00:18:06.71 bitrate=N/A speed=19.7x    frame=26324 fps=472 q=-0.0 size=N/A time=00:18:17.93 bitrate=N/A speed=19.7x    frame=26558 fps=472 q=-0.0 size=N/A time=00:18:27.68 bitrate=N/A speed=19.7x    frame=26793 fps=472 q=-0.0 size=N/A time=00:18:37.49 bitrate=N/A speed=19.7x    frame=27048 fps=472 q=-0.0 size=N/A time=00:18:48.12 bitrate=N/A speed=19.7x    frame=27310 fps=472 q=-0.0 size=N/A time=00:18:59.05 bitrate=N/A speed=19.7x    frame=27561 fps=473 q=-0.0 size=N/A time=00:19:09.52 bitrate=N/A speed=19.7x    frame=27800 fps=473 q=-0.0 size=N/A time=00:19:19.49 bitrate=N/A speed=19.7x    frame=27992 fps=472 q=-0.0 size=N/A time=00:19:27.49 bitrate=N/A speed=19.7x    frame=28244 fps=472 q=-0.0 size=N/A time=00:19:38.01 bitrate=N/A speed=19.7x    frame=28505 fps=472 q=-0.0 size=N/A time=00:19:48.89 bitrate=N/A speed=19.7x    frame=28771 fps=472 q=-0.0 size=N/A time=00:19:59.99 bitrate=N/A speed=19.7x    frame=29027 fps=473 q=-0.0 size=N/A time=00:20:10.66 bitrate=N/A speed=19.7x    frame=29270 fps=473 q=-0.0 size=N/A time=00:20:20.80 bitrate=N/A speed=19.7x    frame=29511 fps=473 q=-0.0 size=N/A time=00:20:30.85 bitrate=N/A speed=19.7x    frame=29737 fps=472 q=-0.0 size=N/A time=00:20:40.28 bitrate=N/A speed=19.7x    frame=29983 fps=472 q=-0.0 size=N/A time=00:20:50.54 bitrate=N/A speed=19.7x    frame=30226 fps=472 q=-0.0 size=N/A time=00:21:00.67 bitrate=N/A speed=19.7x    frame=30475 fps=472 q=-0.0 size=N/A time=00:21:11.06 bitrate=N/A speed=19.7x    frame=30711 fps=472 q=-0.0 size=N/A time=00:21:20.90 bitrate=N/A speed=19.7x    frame=30968 fps=473 q=-0.0 size=N/A time=00:21:31.62 bitrate=N/A speed=19.7x    frame=31218 fps=473 q=-0.0 size=N/A time=00:21:42.05 bitrate=N/A speed=19.7x    frame=31484 fps=473 q=-0.0 size=N/A time=00:21:53.14 bitrate=N/A speed=19.7x    frame=31734 fps=473 q=-0.0 size=N/A time=00:22:03.57 bitrate=N/A speed=19.7x    frame=31995 fps=473 q=-0.0 size=N/A time=00:22:14.45 bitrate=N/A speed=19.7x    frame=32218 fps=473 q=-0.0 size=N/A time=00:22:23.75 bitrate=N/A speed=19.7x    frame=32468 fps=473 q=-0.0 size=N/A time=00:22:34.18 bitrate=N/A speed=19.7x    frame=32717 fps=473 q=-0.0 size=N/A time=00:22:44.57 bitrate=N/A speed=19.7x    frame=32974 fps=473 q=-0.0 size=N/A time=00:22:55.29 bitrate=N/A speed=19.7x    frame=33221 fps=473 q=-0.0 size=N/A time=00:23:05.59 bitrate=N/A speed=19.7x    frame=33477 fps=474 q=-0.0 size=N/A time=00:23:16.26 bitrate=N/A speed=19.8x    frame=33709 fps=473 q=-0.0 size=N/A time=00:23:25.94 bitrate=N/A speed=19.7x    frame=33931 fps=473 q=-0.0 size=N/A time=00:23:35.20 bitrate=N/A speed=19.7x    frame=34145 fps=473 q=-0.0 size=N/A time=00:23:44.13 bitrate=N/A speed=19.7x    frame=34357 fps=472 q=-0.0 size=N/A time=00:23:52.97 bitrate=N/A speed=19.7x    frame=34574 fps=472 q=-0.0 size=N/A time=00:24:02.02 bitrate=N/A speed=19.7x    frame=34799 fps=472 q=-0.0 size=N/A time=00:24:11.40 bitrate=N/A speed=19.7x    [Parsed_ssim_10 @ 000001bfe20dbb80] SSIM Y:0.994276 (22.423323) U:0.992833 (21.446830) V:0.993502 (21.871900) All:0.993907 (22.151518)
[out#0/null @ 000001bfe1805b80] video:15006KiB audio:273420KiB subtitle:0KiB other streams:0KiB global headers:0KiB muxing overhead: unknown
frame=34923 fps=472 q=-0.0 Lsize=N/A time=00:24:16.58 bitrate=N/A speed=19.7x    
